<svg id="svg" version="1.1" xmlns="http://www.w3.org/2000/svg" xmlns:xlink="http://www.w3.org/1999/xlink" width="400" height="100" viewBox="0, 0, 400,100"><g id="svgg"><path id="path0" d="M18.042 24.775 C 17.876 24.843,17.833 29.415,17.833 46.847 L 17.833 68.833 28.958 68.819 C 40.507 68.805,41.118 68.777,43.138 68.172 C 50.045 66.105,53.985 59.511,52.318 52.810 C 51.900 51.134,50.792 49.093,50.039 48.615 C 49.922 48.540,49.870 48.409,49.923 48.323 C 49.976 48.237,49.954 48.167,49.875 48.167 C 49.795 48.167,49.509 47.957,49.240 47.701 C 48.703 47.191,47.095 46.000,46.943 46.000 C 46.891 46.000,46.589 45.824,46.273 45.610 L 45.698 45.219 46.705 44.486 C 48.698 43.034,50.129 40.955,50.507 38.961 C 50.845 37.179,50.594 33.720,50.066 32.881 C 49.938 32.678,49.833 32.420,49.833 32.307 C 49.833 30.988,46.588 27.564,44.218 26.384 C 43.650 26.101,43.219 25.836,43.260 25.796 C 43.300 25.755,43.240 25.713,43.125 25.702 C 43.010 25.691,42.317 25.529,41.583 25.340 C 40.850 25.152,39.950 24.947,39.583 24.885 C 38.804 24.752,18.350 24.648,18.042 24.775 M133.944 24.778 C 133.806 24.917,133.796 68.208,133.934 68.570 C 134.088 68.969,142.412 68.969,142.566 68.570 C 142.621 68.425,142.667 63.816,142.667 58.328 C 142.667 47.606,142.694 47.206,143.523 45.735 C 146.105 41.157,152.369 40.780,155.414 45.018 C 155.736 45.467,156.000 45.862,156.000 45.897 C 156.000 45.931,156.126 46.250,156.279 46.605 C 156.433 46.960,156.599 47.362,156.647 47.500 C 156.695 47.637,156.759 52.494,156.788 58.292 L 156.841 68.833 161.180 68.833 L 165.520 68.833 165.459 56.958 C 165.413 48.021,165.347 44.939,165.190 44.500 C 165.076 44.179,164.835 43.358,164.656 42.676 C 164.477 41.993,164.275 41.393,164.207 41.342 C 164.139 41.291,163.821 40.734,163.500 40.104 C 163.169 39.454,162.447 38.461,161.833 37.812 C 161.237 37.182,160.787 36.665,160.833 36.664 C 160.879 36.662,160.654 36.497,160.333 36.296 C 160.012 36.094,159.697 35.846,159.633 35.744 C 159.569 35.642,159.215 35.459,158.847 35.338 C 158.479 35.216,158.209 35.066,158.248 35.003 C 158.287 34.940,158.228 34.880,158.118 34.869 C 158.007 34.859,157.279 34.648,156.500 34.402 C 154.596 33.800,152.516 33.594,150.777 33.835 C 150.029 33.939,149.291 34.034,149.137 34.048 C 148.984 34.061,148.894 34.130,148.939 34.202 C 148.983 34.274,148.882 34.333,148.713 34.333 C 148.545 34.333,147.847 34.609,147.162 34.945 C 146.477 35.281,145.842 35.538,145.750 35.514 C 145.658 35.491,145.637 35.526,145.703 35.592 C 145.768 35.657,145.518 35.931,145.146 36.201 C 144.774 36.470,144.064 37.116,143.568 37.636 L 142.667 38.582 142.667 31.797 C 142.667 25.259,142.655 25.005,142.344 24.839 C 141.988 24.649,134.131 24.591,133.944 24.778 M39.259 33.458 C 42.511 35.262,42.596 39.582,39.417 41.512 L 38.750 41.917 32.625 41.966 L 26.500 42.015 26.500 37.498 L 26.500 32.981 32.542 33.032 C 38.446 33.082,38.599 33.092,39.259 33.458 M109.333 33.841 C 108.554 33.918,107.804 33.991,107.667 34.003 C 107.529 34.016,107.267 34.088,107.083 34.163 C 106.900 34.238,106.300 34.390,105.750 34.501 C 105.200 34.613,104.675 34.759,104.583 34.827 C 104.492 34.895,104.023 35.089,103.542 35.258 C 103.060 35.427,102.667 35.618,102.667 35.682 C 102.667 35.745,102.496 35.840,102.287 35.893 C 102.078 35.945,101.388 36.386,100.753 36.873 C 99.045 38.184,98.109 39.633,97.389 42.083 C 97.176 42.805,97.013 43.892,97.007 44.625 L 97.000 45.500 101.167 45.500 L 105.333 45.500 105.334 44.875 C 105.338 42.523,106.449 41.560,109.833 40.974 C 111.799 40.634,112.565 40.648,115.000 41.067 C 116.792 41.375,118.513 42.458,118.259 43.119 C 118.210 43.246,118.235 43.311,118.314 43.262 C 118.527 43.130,118.663 44.208,118.665 46.042 L 118.667 47.667 113.375 47.669 C 105.380 47.673,103.066 47.971,100.172 49.370 C 99.573 49.659,99.008 49.875,98.917 49.851 C 98.825 49.826,98.804 49.859,98.869 49.925 C 98.935 49.991,98.700 50.253,98.348 50.509 C 97.590 51.057,96.322 52.675,96.003 53.500 C 95.879 53.821,95.717 54.163,95.644 54.261 C 94.484 55.803,95.179 63.964,96.546 64.856 C 96.636 64.915,96.650 65.065,96.578 65.190 C 96.506 65.315,96.506 65.363,96.579 65.297 C 96.652 65.232,96.923 65.471,97.183 65.829 C 97.934 66.866,100.824 68.830,101.603 68.833 C 101.706 68.833,102.268 68.986,102.852 69.173 C 108.595 71.007,114.745 69.266,118.199 64.827 L 118.649 64.250 118.658 66.542 L 118.667 68.833 123.000 68.833 L 127.333 68.833 127.332 56.458 C 127.331 43.139,127.298 42.510,126.526 40.778 C 126.328 40.335,126.167 39.944,126.167 39.910 C 126.167 39.554,124.028 37.133,123.405 36.784 C 123.208 36.674,122.732 36.374,122.348 36.118 C 119.803 34.420,113.911 33.389,109.333 33.841 M58.242 35.054 C 58.004 36.004,58.278 57.724,58.545 59.045 C 58.832 60.463,59.582 62.598,59.940 63.013 C 60.065 63.158,60.167 63.335,60.167 63.407 C 60.167 63.842,62.623 66.645,63.753 67.500 C 64.398 67.988,65.000 68.339,65.000 68.228 C 65.000 68.166,65.131 68.227,65.292 68.363 C 65.843 68.833,68.111 69.514,69.682 69.683 C 71.790 69.910,75.667 69.561,75.667 69.145 C 75.667 69.065,75.798 69.000,75.958 69.001 C 77.042 69.004,80.333 66.538,81.534 64.822 C 81.808 64.431,81.819 64.495,81.826 66.628 L 81.833 68.839 85.792 68.795 L 89.750 68.750 89.750 51.750 L 89.750 34.750 85.500 34.750 L 81.250 34.750 81.160 45.667 L 81.071 56.583 80.516 57.664 C 79.805 59.049,78.146 60.693,76.869 61.281 C 75.771 61.786,72.152 62.094,72.421 61.660 C 72.508 61.518,72.485 61.490,72.349 61.574 C 71.886 61.860,69.674 60.595,68.721 59.498 C 68.130 58.818,67.282 57.500,67.435 57.500 C 67.493 57.500,67.457 57.399,67.355 57.276 C 66.953 56.792,66.860 54.536,66.844 44.938 C 66.835 39.450,66.788 34.894,66.738 34.813 C 66.688 34.733,64.778 34.667,62.493 34.667 L 58.340 34.667 58.242 35.054 M40.677 50.269 C 44.592 52.151,44.760 57.530,40.978 59.864 L 40.083 60.417 33.292 60.467 L 26.500 60.517 26.500 55.175 L 26.500 49.833 33.135 49.833 L 39.771 49.833 40.677 50.269 M118.643 56.379 C 118.607 57.506,118.503 58.357,118.383 58.504 C 117.060 60.132,115.849 61.039,114.688 61.271 C 114.401 61.328,114.167 61.436,114.167 61.510 C 114.167 61.585,114.035 61.645,113.875 61.643 C 113.715 61.642,113.096 61.720,112.500 61.817 C 109.070 62.375,105.325 61.722,104.577 60.436 C 104.411 60.150,104.194 59.863,104.096 59.798 C 103.686 59.525,103.893 56.970,104.385 56.236 C 105.400 54.721,106.304 54.549,113.393 54.521 L 118.703 54.500 118.643 56.379 " stroke="none" fill="#ec6c6c" fill-rule="evenodd"></path><path id="path1" d="M169.500 28.833 L 169.500 33.000 175.917 33.000 L 182.333 33.000 182.333 50.917 L 182.333 68.833 186.750 68.833 L 191.167 68.833 191.167 50.917 L 191.167 33.000 197.500 33.000 L 203.833 33.000 203.833 28.833 L 203.833 24.667 186.667 24.667 L 169.500 24.667 169.500 28.833 M213.333 33.859 C 212.279 33.939,211.392 34.079,211.361 34.169 C 211.331 34.259,211.158 34.333,210.979 34.333 C 210.457 34.333,208.500 34.861,208.500 35.002 C 208.500 35.072,208.253 35.176,207.951 35.233 C 207.450 35.326,206.173 36.048,205.195 36.789 C 204.249 37.506,203.228 38.686,202.855 39.495 C 202.705 39.819,202.523 40.127,202.450 40.181 C 202.284 40.304,201.838 41.955,201.835 42.458 C 201.834 42.665,201.758 42.833,201.667 42.833 C 201.569 42.833,201.500 43.389,201.500 44.167 L 201.500 45.500 205.667 45.500 L 209.833 45.500 209.833 44.667 C 209.833 44.208,209.908 43.833,210.000 43.833 C 210.092 43.833,210.167 43.714,210.167 43.567 C 210.167 42.255,212.503 41.000,214.947 41.000 C 215.343 41.000,215.667 40.925,215.667 40.833 C 215.667 40.742,216.037 40.667,216.490 40.667 C 216.943 40.667,217.360 40.742,217.417 40.833 C 217.473 40.925,217.871 41.002,218.302 41.003 C 219.343 41.008,221.220 41.410,221.299 41.646 C 221.333 41.749,221.455 41.833,221.570 41.833 C 222.426 41.833,223.160 43.837,223.164 46.188 L 223.167 47.626 216.458 47.715 C 210.110 47.800,207.323 47.990,207.194 48.346 C 207.164 48.431,206.998 48.500,206.825 48.500 C 206.428 48.500,204.944 48.997,204.833 49.168 C 204.787 49.238,204.469 49.413,204.125 49.556 C 203.781 49.699,203.500 49.895,203.500 49.991 C 203.500 50.088,203.401 50.167,203.279 50.167 C 203.052 50.167,201.167 51.948,201.167 52.163 C 201.167 52.229,201.030 52.440,200.863 52.633 C 200.696 52.825,200.455 53.306,200.328 53.700 C 200.201 54.094,200.048 54.454,199.988 54.500 C 199.756 54.677,199.500 56.861,199.500 58.667 C 199.500 60.473,199.756 62.657,199.988 62.833 C 200.048 62.879,200.203 63.245,200.333 63.647 C 200.462 64.049,200.646 64.463,200.742 64.567 C 200.838 64.671,201.054 65.002,201.222 65.302 C 201.576 65.935,202.987 67.333,203.271 67.333 C 203.377 67.333,203.500 67.427,203.545 67.542 C 203.654 67.826,205.606 68.777,206.375 68.921 C 206.719 68.985,207.000 69.096,207.000 69.168 C 207.000 69.413,209.910 69.720,212.333 69.730 C 214.643 69.740,217.167 69.449,217.167 69.173 C 217.167 69.102,217.510 68.947,217.930 68.830 C 218.350 68.712,218.781 68.533,218.889 68.433 C 218.996 68.332,219.383 68.053,219.750 67.812 C 220.624 67.238,221.792 66.114,222.554 65.112 L 223.167 64.308 223.167 66.571 L 223.167 68.833 227.594 68.833 L 232.022 68.833 231.969 55.827 C 231.933 46.742,231.862 42.785,231.736 42.702 C 231.637 42.637,231.457 42.108,231.336 41.528 C 231.214 40.947,231.030 40.385,230.926 40.278 C 230.821 40.171,230.632 39.829,230.505 39.519 C 230.178 38.719,228.059 36.641,227.083 36.162 C 226.808 36.027,226.494 35.832,226.384 35.729 C 226.275 35.626,225.843 35.441,225.426 35.318 C 225.008 35.195,224.667 35.048,224.667 34.992 C 224.667 34.935,224.085 34.756,223.375 34.593 C 222.665 34.429,221.955 34.231,221.798 34.151 C 221.048 33.768,216.564 33.614,213.333 33.859 M254.430 33.850 C 253.704 33.927,253.066 34.053,253.013 34.132 C 252.960 34.210,252.554 34.374,252.111 34.496 C 251.669 34.618,251.219 34.801,251.111 34.903 C 251.004 35.006,250.598 35.231,250.208 35.403 C 249.819 35.576,249.500 35.783,249.500 35.864 C 249.500 35.944,249.369 36.058,249.208 36.116 C 248.839 36.250,247.008 38.026,247.003 38.255 C 247.002 38.349,246.850 38.554,246.667 38.711 C 246.336 38.995,246.333 38.981,246.333 36.832 L 246.333 34.667 242.417 34.667 L 238.500 34.667 238.500 51.750 L 238.500 68.833 242.833 68.833 L 247.167 68.833 247.172 58.125 C 247.178 47.890,247.192 47.387,247.500 46.750 C 247.677 46.383,247.825 46.000,247.828 45.899 C 247.843 45.393,250.102 42.929,250.733 42.729 C 250.917 42.670,251.165 42.525,251.284 42.406 C 251.902 41.789,255.621 41.667,256.833 42.225 C 258.334 42.916,259.814 44.238,260.417 45.426 C 260.600 45.788,260.797 46.121,260.854 46.167 C 261.250 46.485,261.333 48.609,261.333 58.425 L 261.333 68.833 265.750 68.833 L 270.167 68.833 270.167 57.500 C 270.167 50.056,270.109 46.167,270.000 46.167 C 269.908 46.167,269.833 45.911,269.833 45.598 C 269.833 44.724,269.382 42.564,269.109 42.134 C 268.976 41.923,268.815 41.505,268.753 41.207 C 268.690 40.908,268.552 40.569,268.445 40.454 C 268.338 40.338,268.107 39.988,267.932 39.676 C 267.576 39.041,267.249 38.610,266.738 38.097 C 266.547 37.906,266.343 37.617,266.283 37.455 C 266.223 37.292,266.041 37.110,265.879 37.050 C 265.716 36.990,265.427 36.786,265.237 36.596 C 264.620 35.980,264.133 35.635,263.519 35.380 C 263.188 35.242,262.879 35.071,262.833 35.001 C 262.735 34.850,261.259 34.333,260.925 34.333 C 260.798 34.333,260.669 34.264,260.639 34.179 C 260.500 33.795,256.812 33.599,254.430 33.850 M289.430 33.850 C 288.704 33.927,288.066 34.056,288.013 34.137 C 287.960 34.219,287.617 34.339,287.250 34.406 C 285.417 34.736,282.150 37.056,281.226 38.684 C 281.056 38.983,280.793 39.357,280.642 39.514 C 280.491 39.671,280.313 40.051,280.246 40.358 C 280.179 40.665,280.052 40.963,279.963 41.020 C 279.172 41.524,279.175 48.400,279.966 48.995 C 280.031 49.043,280.194 49.308,280.329 49.583 C 280.627 50.191,280.749 50.346,281.814 51.458 C 282.284 51.950,282.545 52.333,282.409 52.333 C 282.276 52.333,282.167 52.408,282.167 52.500 C 282.167 52.592,281.998 52.668,281.792 52.669 C 281.252 52.671,279.631 53.123,279.515 53.303 C 279.461 53.387,279.239 53.511,279.021 53.579 C 278.059 53.879,276.016 56.441,276.004 57.361 C 276.002 57.514,275.910 57.669,275.800 57.706 C 275.542 57.792,275.503 61.291,275.758 61.464 C 275.854 61.530,276.027 61.906,276.142 62.300 C 276.258 62.695,276.460 63.059,276.593 63.110 C 276.725 63.161,276.833 63.282,276.833 63.380 C 276.833 63.477,276.959 63.696,277.112 63.866 C 277.402 64.186,277.076 65.333,276.694 65.333 C 276.615 65.333,276.411 65.671,276.241 66.083 C 276.071 66.496,275.881 66.833,275.819 66.833 C 275.590 66.833,275.333 68.355,275.333 69.713 C 275.333 71.204,275.619 73.000,275.856 73.000 C 275.935 73.000,276.000 73.116,276.000 73.258 C 276.000 73.617,276.497 74.555,276.773 74.717 C 276.898 74.790,277.000 74.931,277.000 75.031 C 277.000 75.274,278.201 76.500,278.441 76.500 C 278.545 76.500,278.676 76.616,278.730 76.758 C 278.784 76.900,279.055 77.095,279.331 77.191 C 279.607 77.287,279.833 77.421,279.833 77.489 C 279.833 77.557,280.265 77.756,280.792 77.931 C 281.319 78.107,281.836 78.330,281.940 78.428 C 282.045 78.526,282.682 78.709,283.357 78.834 C 284.031 78.959,284.621 79.112,284.667 79.175 C 285.136 79.815,298.746 79.798,298.972 79.157 C 299.003 79.071,299.223 79.000,299.462 79.000 C 300.006 79.000,302.055 78.496,302.167 78.335 C 302.212 78.269,302.550 78.121,302.917 78.006 C 303.283 77.891,303.658 77.711,303.750 77.607 C 303.842 77.502,304.195 77.275,304.536 77.102 C 305.335 76.696,306.897 75.170,307.188 74.512 C 307.313 74.230,307.468 74.000,307.532 74.000 C 307.597 74.000,307.774 73.569,307.926 73.042 C 308.078 72.515,308.270 71.953,308.351 71.794 C 308.560 71.388,308.543 67.167,308.333 67.167 C 308.242 67.167,308.167 67.019,308.167 66.839 C 308.167 66.305,307.663 64.982,307.319 64.613 C 307.144 64.425,307.000 64.202,307.000 64.119 C 307.000 63.898,305.336 62.300,304.750 61.958 C 303.429 61.187,301.814 60.513,300.833 60.323 C 300.237 60.208,299.712 60.057,299.667 59.989 C 299.292 59.433,288.253 59.203,285.626 59.696 C 284.192 59.965,284.097 59.943,283.843 59.277 C 283.340 57.951,284.536 56.833,286.457 56.833 C 286.847 56.833,287.167 56.768,287.167 56.687 C 287.167 56.607,288.948 56.502,291.125 56.454 C 294.855 56.372,297.167 56.133,297.167 55.830 C 297.167 55.756,297.461 55.646,297.820 55.586 C 298.180 55.525,298.820 55.256,299.243 54.988 C 299.666 54.719,300.081 54.500,300.167 54.500 C 300.252 54.500,300.402 54.350,300.500 54.167 C 300.598 53.983,300.761 53.833,300.861 53.833 C 301.094 53.833,302.333 52.639,302.333 52.415 C 302.333 52.323,302.483 52.153,302.667 52.039 C 302.850 51.924,303.000 51.724,303.000 51.594 C 303.000 51.464,303.105 51.252,303.234 51.123 C 303.477 50.880,304.000 49.493,304.000 49.091 C 304.000 48.965,304.094 48.830,304.208 48.792 C 304.484 48.700,304.510 43.049,304.235 42.869 C 303.935 42.672,303.636 41.201,303.825 40.849 C 304.074 40.384,304.439 40.275,306.083 40.175 L 307.583 40.083 307.629 36.850 L 307.674 33.616 305.441 33.710 C 302.847 33.819,301.862 34.166,300.534 35.438 C 299.637 36.297,299.776 36.267,299.098 35.750 C 298.798 35.521,298.471 35.333,298.371 35.333 C 298.272 35.333,298.085 35.228,297.957 35.099 C 297.690 34.833,296.311 34.333,295.841 34.333 C 295.669 34.333,295.503 34.261,295.472 34.173 C 295.337 33.783,291.840 33.596,289.430 33.850 M325.429 33.853 C 324.427 33.930,323.564 34.056,323.512 34.133 C 323.460 34.209,322.760 34.408,321.958 34.574 C 321.156 34.740,320.500 34.938,320.500 35.015 C 320.500 35.091,320.203 35.234,319.841 35.331 C 319.478 35.429,319.083 35.608,318.962 35.729 C 318.841 35.850,318.477 36.074,318.153 36.228 C 317.403 36.584,315.359 38.589,315.233 39.093 C 315.180 39.304,315.039 39.513,314.920 39.559 C 314.801 39.605,314.606 40.023,314.487 40.488 C 314.368 40.953,314.217 41.333,314.152 41.333 C 313.973 41.333,313.667 43.312,313.667 44.472 L 313.667 45.500 317.833 45.500 L 322.000 45.500 322.000 44.858 C 322.000 43.625,322.525 42.659,323.695 41.738 C 324.140 41.388,325.104 41.148,326.458 41.050 C 327.215 40.995,327.833 40.887,327.833 40.809 C 327.833 40.731,328.208 40.667,328.667 40.667 C 329.125 40.667,329.500 40.742,329.500 40.833 C 329.500 40.925,329.894 41.001,330.375 41.002 C 331.574 41.006,333.271 41.429,333.705 41.833 C 333.902 42.016,334.117 42.167,334.184 42.167 C 334.699 42.167,335.218 43.813,335.294 45.688 L 335.373 47.626 328.561 47.715 C 322.221 47.798,319.333 47.990,319.333 48.331 C 319.333 48.399,318.877 48.551,318.320 48.670 C 317.762 48.788,317.218 48.968,317.111 49.070 C 317.004 49.172,316.602 49.395,316.218 49.566 C 315.834 49.736,315.480 49.978,315.432 50.104 C 315.383 50.230,315.254 50.333,315.143 50.333 C 314.970 50.333,314.153 51.135,313.333 52.109 C 312.994 52.512,312.667 53.157,312.667 53.422 C 312.667 53.541,312.590 53.665,312.496 53.696 C 312.295 53.763,311.838 55.380,311.835 56.032 C 311.834 56.279,311.758 56.527,311.667 56.583 C 311.571 56.642,311.500 57.502,311.500 58.593 C 311.500 59.753,311.565 60.500,311.667 60.500 C 311.758 60.500,311.833 60.739,311.833 61.031 C 311.833 61.611,312.316 63.699,312.481 63.833 C 312.537 63.879,312.715 64.202,312.876 64.550 C 313.229 65.312,313.346 65.463,314.417 66.528 C 315.597 67.702,315.679 67.764,316.375 68.012 C 316.719 68.134,317.000 68.291,317.000 68.362 C 317.000 68.433,317.431 68.614,317.958 68.765 C 318.485 68.917,318.992 69.095,319.083 69.163 C 320.113 69.922,327.512 69.942,329.223 69.191 C 329.604 69.023,330.179 68.785,330.500 68.661 C 330.821 68.537,331.143 68.338,331.217 68.218 C 331.290 68.098,331.455 68.000,331.584 68.000 C 331.874 68.000,334.667 65.323,334.667 65.046 C 334.667 64.935,334.817 64.765,335.000 64.667 C 335.325 64.493,335.333 64.540,335.333 66.661 L 335.333 68.833 339.675 68.833 L 344.017 68.833 343.956 55.708 C 343.895 42.693,343.839 41.374,343.332 41.000 C 343.270 40.954,343.085 40.560,342.920 40.125 C 342.756 39.690,342.562 39.333,342.489 39.333 C 342.416 39.333,342.310 39.189,342.254 39.012 C 342.103 38.536,340.025 36.549,339.343 36.229 C 339.017 36.076,338.712 35.899,338.667 35.835 C 338.621 35.771,338.208 35.580,337.750 35.410 C 337.292 35.240,336.873 35.037,336.819 34.960 C 336.766 34.883,336.091 34.693,335.319 34.537 C 334.548 34.381,333.876 34.199,333.826 34.132 C 333.569 33.783,328.528 33.616,325.429 33.853 M366.583 33.861 C 365.850 33.945,365.225 34.085,365.194 34.173 C 365.164 34.261,365.035 34.333,364.909 34.333 C 364.507 34.333,363.120 34.856,362.877 35.099 C 362.748 35.228,362.562 35.333,362.463 35.333 C 361.928 35.333,359.455 37.577,358.859 38.603 C 358.720 38.842,358.676 38.413,358.672 36.792 L 358.667 34.667 354.583 34.667 L 350.500 34.667 350.500 51.750 L 350.500 68.833 354.917 68.833 L 359.333 68.833 359.333 58.386 C 359.333 47.210,359.395 46.271,360.185 45.481 C 360.358 45.308,360.500 45.087,360.500 44.989 C 360.500 44.777,362.249 43.000,362.458 43.000 C 362.538 43.000,362.758 42.857,362.945 42.682 C 364.103 41.604,368.529 41.565,369.637 42.623 C 369.758 42.739,369.948 42.833,370.058 42.833 C 370.321 42.833,372.333 44.864,372.333 45.129 C 372.333 45.242,372.398 45.333,372.477 45.333 C 372.646 45.333,373.167 46.629,373.167 47.047 C 373.167 47.205,373.242 47.333,373.333 47.333 C 373.443 47.333,373.500 51.028,373.500 58.083 L 373.500 68.833 377.833 68.833 L 382.167 68.833 382.167 57.512 C 382.167 46.793,382.059 43.748,381.672 43.501 C 381.600 43.455,381.442 42.977,381.323 42.440 C 381.203 41.902,381.020 41.377,380.916 41.273 C 380.811 41.168,380.590 40.727,380.424 40.292 C 380.257 39.856,380.054 39.500,379.972 39.500 C 379.890 39.500,379.777 39.369,379.721 39.208 C 379.520 38.637,376.949 36.000,376.592 36.000 C 376.470 36.000,376.326 35.887,376.273 35.750 C 376.220 35.612,376.072 35.500,375.944 35.500 C 375.816 35.500,375.533 35.361,375.314 35.191 C 375.096 35.021,374.504 34.755,374.000 34.599 C 373.496 34.443,372.955 34.246,372.798 34.160 C 372.041 33.748,368.909 33.598,366.583 33.861 M293.017 41.364 C 293.328 41.472,293.682 41.660,293.804 41.780 C 293.925 41.901,294.096 42.000,294.184 42.000 C 294.438 42.000,295.500 43.130,295.500 43.399 C 295.500 43.533,295.631 43.774,295.792 43.935 C 296.015 44.158,296.083 44.505,296.083 45.417 C 296.083 46.328,296.015 46.675,295.792 46.899 C 295.631 47.059,295.500 47.276,295.500 47.380 C 295.500 47.639,294.315 48.833,294.058 48.833 C 293.943 48.833,293.780 48.958,293.695 49.110 C 293.140 50.102,290.147 49.455,288.729 48.037 C 285.990 45.298,289.340 40.084,293.017 41.364 M223.167 55.807 C 223.167 57.818,221.905 60.333,220.895 60.333 C 220.804 60.333,220.572 60.480,220.380 60.659 C 220.188 60.838,219.518 61.118,218.890 61.281 C 218.263 61.445,217.696 61.654,217.631 61.747 C 217.470 61.976,211.696 61.976,211.536 61.747 C 211.470 61.654,211.053 61.484,210.608 61.368 C 208.915 60.930,208.153 59.277,208.604 57.022 C 208.707 56.506,209.660 55.333,209.977 55.333 C 210.068 55.333,210.253 55.223,210.387 55.089 C 210.803 54.673,212.551 54.542,217.958 54.521 L 223.167 54.500 223.167 55.807 M335.307 56.256 C 335.275 57.233,335.172 58.065,335.075 58.131 C 334.978 58.197,334.768 58.531,334.608 58.875 C 334.449 59.219,334.265 59.500,334.201 59.500 C 334.136 59.501,333.821 59.726,333.500 60.001 C 333.179 60.276,332.770 60.549,332.591 60.606 C 332.412 60.664,332.177 60.799,332.068 60.908 C 331.960 61.016,331.431 61.202,330.894 61.321 C 330.356 61.440,329.811 61.623,329.683 61.727 C 329.365 61.985,323.975 61.989,323.651 61.731 C 323.522 61.629,323.192 61.494,322.917 61.430 C 321.478 61.098,320.691 60.120,320.543 58.480 C 320.458 57.543,320.483 57.454,321.211 56.111 C 321.921 54.800,323.342 54.544,330.057 54.519 L 335.364 54.500 335.307 56.256 M293.833 65.833 C 293.833 65.925,294.082 66.000,294.386 66.000 C 295.827 66.000,298.667 66.985,298.667 67.484 C 298.667 67.550,298.835 67.785,299.042 68.006 C 299.503 68.501,299.583 70.229,299.167 70.720 C 298.335 71.703,297.222 72.333,296.318 72.333 C 296.158 72.333,295.997 72.427,295.958 72.542 C 295.905 72.701,294.946 72.750,291.917 72.750 C 288.887 72.750,287.928 72.701,287.875 72.542 C 287.837 72.427,287.664 72.333,287.492 72.333 C 285.880 72.333,284.333 70.905,284.333 69.417 C 284.333 68.414,285.173 67.000,285.769 67.000 C 285.883 67.000,286.075 66.901,286.196 66.780 C 286.548 66.430,287.418 66.188,288.761 66.066 C 289.448 66.004,290.049 65.889,290.098 65.810 C 290.225 65.605,293.833 65.627,293.833 65.833 " stroke="none" fill="#044c64" fill-rule="evenodd"></path><path id="path2" d="M155.333 34.064 C 155.333 34.099,155.521 34.164,155.750 34.207 C 155.979 34.251,156.167 34.223,156.167 34.144 C 156.167 34.065,155.979 34.000,155.750 34.000 C 155.521 34.000,155.333 34.029,155.333 34.064 M104.208 34.784 C 104.002 34.824,103.833 34.919,103.833 34.996 C 103.833 35.168,104.471 35.015,104.596 34.813 C 104.646 34.733,104.663 34.677,104.635 34.689 C 104.607 34.702,104.415 34.745,104.208 34.784 M119.333 34.722 C 119.333 34.766,119.575 34.885,119.871 34.988 C 120.167 35.091,120.336 35.107,120.246 35.023 C 120.056 34.846,119.333 34.607,119.333 34.722 M122.954 36.512 C 123.157 36.725,123.366 36.856,123.417 36.805 C 123.468 36.754,123.302 36.580,123.047 36.419 L 122.583 36.126 122.954 36.512 M144.054 36.958 C 143.604 37.394,143.136 37.900,143.013 38.083 C 142.890 38.267,143.038 38.154,143.340 37.833 C 143.643 37.512,144.159 37.009,144.487 36.715 C 144.815 36.421,145.036 36.177,144.977 36.174 C 144.919 36.170,144.503 36.523,144.054 36.958 M160.683 36.708 C 160.723 36.731,161.091 37.050,161.503 37.417 L 162.250 38.083 161.591 37.375 C 161.229 36.985,160.860 36.667,160.772 36.667 C 160.683 36.667,160.644 36.685,160.683 36.708 M124.510 37.763 C 124.826 38.137,125.117 38.415,125.158 38.382 C 125.200 38.349,124.942 38.043,124.585 37.703 L 123.938 37.083 124.510 37.763 M41.578 38.417 C 41.535 38.554,41.463 38.783,41.419 38.925 C 41.374 39.068,41.402 39.144,41.482 39.094 C 41.562 39.045,41.663 38.816,41.707 38.586 C 41.794 38.130,41.704 38.013,41.578 38.417 M116.833 41.626 C 116.833 41.700,117.058 41.894,117.333 42.057 C 117.608 42.219,117.833 42.325,117.833 42.291 C 117.833 42.257,117.608 42.063,117.333 41.860 C 117.058 41.656,116.833 41.551,116.833 41.626 M118.106 42.917 C 118.492 43.575,118.500 43.585,118.500 43.380 C 118.500 43.283,118.346 43.027,118.157 42.810 L 117.814 42.417 118.106 42.917 M145.165 43.714 C 144.936 43.917,144.599 44.271,144.417 44.500 C 144.235 44.729,144.441 44.579,144.875 44.167 C 145.309 43.754,145.665 43.398,145.665 43.375 C 145.668 43.290,145.573 43.354,145.165 43.714 M47.690 46.486 C 47.906 46.661,48.115 46.773,48.154 46.734 C 48.240 46.649,47.643 46.179,47.440 46.172 C 47.361 46.169,47.473 46.310,47.690 46.486 M104.982 55.542 C 104.700 55.778,104.260 56.333,104.355 56.333 C 104.390 56.333,104.630 56.108,104.890 55.833 C 105.375 55.319,105.421 55.173,104.982 55.542 M58.186 57.208 C 58.175 57.735,58.225 58.167,58.296 58.167 C 58.367 58.167,58.401 57.848,58.371 57.458 C 58.280 56.291,58.207 56.191,58.186 57.208 M94.833 58.490 C 94.833 59.401,94.890 60.182,94.958 60.224 C 95.027 60.267,95.083 59.521,95.083 58.567 C 95.083 57.614,95.027 56.833,94.958 56.833 C 94.890 56.833,94.833 57.579,94.833 58.490 M71.667 61.472 C 71.804 61.557,72.104 61.676,72.333 61.738 C 72.623 61.815,72.674 61.802,72.500 61.695 C 72.362 61.610,72.063 61.490,71.833 61.429 C 71.544 61.351,71.493 61.365,71.667 61.472 M105.852 61.395 C 106.036 61.601,107.000 61.819,107.000 61.655 C 107.000 61.570,106.856 61.500,106.680 61.500 C 106.504 61.500,106.223 61.451,106.055 61.390 C 105.887 61.330,105.796 61.332,105.852 61.395 M80.259 66.323 L 79.602 67.083 80.334 66.381 C 80.737 65.994,81.033 65.652,80.992 65.620 C 80.950 65.588,80.621 65.904,80.259 66.323 M116.740 66.542 L 116.250 67.083 116.792 66.594 C 117.090 66.325,117.333 66.081,117.333 66.052 C 117.333 65.923,117.196 66.037,116.740 66.542 " stroke="none" fill="#f06068" fill-rule="evenodd"></path><path id="path3" d="" stroke="none" fill="#406068" fill-rule="evenodd"></path><path id="path4" d="" stroke="none" fill="#046468" fill-rule="evenodd"></path></g></svg>